<svg width="105" height="103" viewBox="0 0 105 103" fill="none" xmlns="http://www.w3.org/2000/svg">
<g id="Group">
<g id="Group_2">
<path id="Vector" d="M85.6435 21.7985C84.2684 21.7985 83.1536 20.6838 83.1536 19.3087C83.1536 17.9336 84.2684 16.8188 85.6435 16.8188C87.0186 16.8188 88.1333 17.9336 88.1333 19.3087C88.1333 20.6838 87.0186 21.7985 85.6435 21.7985Z" fill="black"/>
<path id="Vector_2" d="M102.242 21.7985C100.867 21.7985 99.7522 20.6838 99.7522 19.3087C99.7522 17.9336 100.867 16.8188 102.242 16.8188C103.617 16.8188 104.732 17.9336 104.732 19.3087C104.732 20.6838 103.617 21.7985 102.242 21.7985Z" fill="black"/>
<path id="Vector_3" d="M52.4452 21.7985C51.0701 21.7985 49.9554 20.6838 49.9554 19.3087C49.9554 17.9336 51.0701 16.8188 52.4452 16.8188C53.8203 16.8188 54.9351 17.9336 54.9351 19.3087C54.9351 20.6838 53.8203 21.7985 52.4452 21.7985Z" fill="black"/>
<path id="Vector_4" d="M69.0443 21.7985C67.6692 21.7985 66.5545 20.6838 66.5545 19.3087C66.5545 17.9336 67.6692 16.8188 69.0443 16.8188C70.4194 16.8188 71.5342 17.9336 71.5342 19.3087C71.5342 20.6838 70.4194 21.7985 69.0443 21.7985Z" fill="black"/>
<path id="Vector_5" d="M35.8461 21.7985C34.471 21.7985 33.3563 20.6838 33.3563 19.3087C33.3563 17.9336 34.471 16.8188 35.8461 16.8188C37.2212 16.8188 38.3359 17.9336 38.3359 19.3087C38.3359 20.6838 37.2212 21.7985 35.8461 21.7985Z" fill="black"/>
<path id="Vector_6" d="M19.2475 21.7985C17.8724 21.7985 16.7576 20.6838 16.7576 19.3087C16.7576 17.9336 17.8724 16.8188 19.2475 16.8188C20.6226 16.8188 21.7373 17.9336 21.7373 19.3087C21.7373 20.6838 20.6226 21.7985 19.2475 21.7985Z" fill="black"/>
<path id="Vector_7" d="M2.64834 21.7985C1.27324 21.7985 0.158499 20.6838 0.158499 19.3087C0.158499 17.9336 1.27324 16.8188 2.64834 16.8188C4.02344 16.8188 5.13818 17.9336 5.13818 19.3087C5.13818 20.6838 4.02344 21.7985 2.64834 21.7985Z" fill="black"/>
<path id="Vector_8" d="M85.6435 37.8435C84.2684 37.8435 83.1536 36.7287 83.1536 35.3536C83.1536 33.9785 84.2684 32.8638 85.6435 32.8638C87.0186 32.8638 88.1333 33.9785 88.1333 35.3536C88.1333 36.7287 87.0186 37.8435 85.6435 37.8435Z" fill="black"/>
<path id="Vector_9" d="M102.242 37.8435C100.867 37.8435 99.7522 36.7287 99.7522 35.3536C99.7522 33.9785 100.867 32.8638 102.242 32.8638C103.617 32.8638 104.732 33.9785 104.732 35.3536C104.732 36.7287 103.617 37.8435 102.242 37.8435Z" fill="black"/>
<path id="Vector_10" d="M52.4452 37.8435C51.0701 37.8435 49.9554 36.7287 49.9554 35.3536C49.9554 33.9785 51.0701 32.8638 52.4452 32.8638C53.8203 32.8638 54.9351 33.9785 54.9351 35.3536C54.9351 36.7287 53.8203 37.8435 52.4452 37.8435Z" fill="black"/>
<path id="Vector_11" d="M69.0443 37.8435C67.6692 37.8435 66.5545 36.7287 66.5545 35.3536C66.5545 33.9785 67.6692 32.8638 69.0443 32.8638C70.4194 32.8638 71.5342 33.9785 71.5342 35.3536C71.5342 36.7287 70.4194 37.8435 69.0443 37.8435Z" fill="black"/>
<path id="Vector_12" d="M35.8461 37.8435C34.471 37.8435 33.3563 36.7287 33.3563 35.3536C33.3563 33.9785 34.471 32.8638 35.8461 32.8638C37.2212 32.8638 38.3359 33.9785 38.3359 35.3536C38.3359 36.7287 37.2212 37.8435 35.8461 37.8435Z" fill="black"/>
<path id="Vector_13" d="M19.2475 37.8435C17.8724 37.8435 16.7576 36.7287 16.7576 35.3536C16.7576 33.9785 17.8724 32.8638 19.2475 32.8638C20.6226 32.8638 21.7373 33.9785 21.7373 35.3536C21.7373 36.7287 20.6226 37.8435 19.2475 37.8435Z" fill="black"/>
<path id="Vector_14" d="M2.64834 37.8435C1.27324 37.8435 0.158499 36.7287 0.158499 35.3536C0.158499 33.9785 1.27324 32.8638 2.64834 32.8638C4.02344 32.8638 5.13818 33.9785 5.13818 35.3536C5.13818 36.7287 4.02344 37.8435 2.64834 37.8435Z" fill="black"/>
<path id="Vector_15" d="M85.6435 53.8894C84.2684 53.8894 83.1536 52.7746 83.1536 51.3995C83.1536 50.0244 84.2684 48.9097 85.6435 48.9097C87.0186 48.9097 88.1333 50.0244 88.1333 51.3995C88.1333 52.7746 87.0186 53.8894 85.6435 53.8894Z" fill="black"/>
<path id="Vector_16" d="M102.242 53.8894C100.867 53.8894 99.7522 52.7746 99.7522 51.3995C99.7522 50.0244 100.867 48.9097 102.242 48.9097C103.617 48.9097 104.732 50.0244 104.732 51.3995C104.732 52.7746 103.617 53.8894 102.242 53.8894Z" fill="black"/>
<path id="Vector_17" d="M52.4452 53.8894C51.0701 53.8894 49.9554 52.7746 49.9554 51.3995C49.9554 50.0244 51.0701 48.9097 52.4452 48.9097C53.8203 48.9097 54.9351 50.0244 54.9351 51.3995C54.9351 52.7746 53.8203 53.8894 52.4452 53.8894Z" fill="black"/>
<path id="Vector_18" d="M69.0443 53.8894C67.6692 53.8894 66.5545 52.7746 66.5545 51.3995C66.5545 50.0244 67.6692 48.9097 69.0443 48.9097C70.4194 48.9097 71.5342 50.0244 71.5342 51.3995C71.5342 52.7746 70.4194 53.8894 69.0443 53.8894Z" fill="black"/>
<path id="Vector_19" d="M35.8461 53.8894C34.471 53.8894 33.3563 52.7746 33.3563 51.3995C33.3563 50.0244 34.471 48.9097 35.8461 48.9097C37.2212 48.9097 38.3359 50.0244 38.3359 51.3995C38.3359 52.7746 37.2212 53.8894 35.8461 53.8894Z" fill="black"/>
<path id="Vector_20" d="M19.2475 53.8894C17.8724 53.8894 16.7576 52.7746 16.7576 51.3995C16.7576 50.0244 17.8724 48.9097 19.2475 48.9097C20.6226 48.9097 21.7373 50.0244 21.7373 51.3995C21.7373 52.7746 20.6226 53.8894 19.2475 53.8894Z" fill="black"/>
<path id="Vector_21" d="M2.64834 53.8894C1.27324 53.8894 0.158499 52.7746 0.158499 51.3995C0.158499 50.0244 1.27324 48.9097 2.64834 48.9097C4.02344 48.9097 5.13818 50.0244 5.13818 51.3995C5.13818 52.7746 4.02344 53.8894 2.64834 53.8894Z" fill="black"/>
<path id="Vector_22" d="M85.6435 69.9353C84.2684 69.9353 83.1536 68.8205 83.1536 67.4454C83.1536 66.0703 84.2684 64.9556 85.6435 64.9556C87.0186 64.9556 88.1333 66.0703 88.1333 67.4454C88.1333 68.8205 87.0186 69.9353 85.6435 69.9353Z" fill="black"/>
<path id="Vector_23" d="M102.242 69.9353C100.867 69.9353 99.7522 68.8205 99.7522 67.4454C99.7522 66.0703 100.867 64.9556 102.242 64.9556C103.617 64.9556 104.732 66.0703 104.732 67.4454C104.732 68.8205 103.617 69.9353 102.242 69.9353Z" fill="black"/>
<path id="Vector_24" d="M52.4452 69.9353C51.0701 69.9353 49.9554 68.8205 49.9554 67.4454C49.9554 66.0703 51.0701 64.9556 52.4452 64.9556C53.8203 64.9556 54.9351 66.0703 54.9351 67.4454C54.9351 68.8205 53.8203 69.9353 52.4452 69.9353Z" fill="black"/>
<path id="Vector_25" d="M69.0443 69.9353C67.6692 69.9353 66.5545 68.8205 66.5545 67.4454C66.5545 66.0703 67.6692 64.9556 69.0443 64.9556C70.4194 64.9556 71.5342 66.0703 71.5342 67.4454C71.5342 68.8205 70.4194 69.9353 69.0443 69.9353Z" fill="black"/>
<path id="Vector_26" d="M35.8461 69.9353C34.471 69.9353 33.3563 68.8205 33.3563 67.4454C33.3563 66.0703 34.471 64.9556 35.8461 64.9556C37.2212 64.9556 38.3359 66.0703 38.3359 67.4454C38.3359 68.8205 37.2212 69.9353 35.8461 69.9353Z" fill="black"/>
<path id="Vector_27" d="M19.2475 69.9353C17.8724 69.9353 16.7576 68.8205 16.7576 67.4454C16.7576 66.0703 17.8724 64.9556 19.2475 64.9556C20.6226 64.9556 21.7373 66.0703 21.7373 67.4454C21.7373 68.8205 20.6226 69.9353 19.2475 69.9353Z" fill="black"/>
<path id="Vector_28" d="M2.64834 69.9353C1.27324 69.9353 0.158499 68.8205 0.158499 67.4454C0.158499 66.0703 1.27324 64.9556 2.64834 64.9556C4.02344 64.9556 5.13818 66.0703 5.13818 67.4454C5.13818 68.8205 4.02344 69.9353 2.64834 69.9353Z" fill="black"/>
<path id="Vector_29" d="M85.6435 85.9807C84.2684 85.9807 83.1536 84.8659 83.1536 83.4908C83.1536 82.1157 84.2684 81.001 85.6435 81.001C87.0186 81.001 88.1333 82.1157 88.1333 83.4908C88.1333 84.8659 87.0186 85.9807 85.6435 85.9807Z" fill="black"/>
<path id="Vector_30" d="M102.242 85.9807C100.867 85.9807 99.7522 84.8659 99.7522 83.4908C99.7522 82.1157 100.867 81.001 102.242 81.001C103.617 81.001 104.732 82.1157 104.732 83.4908C104.732 84.8659 103.617 85.9807 102.242 85.9807Z" fill="black"/>
<path id="Vector_31" d="M52.4452 85.9807C51.0701 85.9807 49.9554 84.8659 49.9554 83.4908C49.9554 82.1157 51.0701 81.001 52.4452 81.001C53.8203 81.001 54.9351 82.1157 54.9351 83.4908C54.9351 84.8659 53.8203 85.9807 52.4452 85.9807Z" fill="black"/>
<path id="Vector_32" d="M69.0443 85.9807C67.6692 85.9807 66.5545 84.8659 66.5545 83.4908C66.5545 82.1157 67.6692 81.001 69.0443 81.001C70.4194 81.001 71.5342 82.1157 71.5342 83.4908C71.5342 84.8659 70.4194 85.9807 69.0443 85.9807Z" fill="black"/>
<path id="Vector_33" d="M35.8461 85.9807C34.471 85.9807 33.3563 84.8659 33.3563 83.4908C33.3563 82.1157 34.471 81.001 35.8461 81.001C37.2212 81.001 38.3359 82.1157 38.3359 83.4908C38.3359 84.8659 37.2212 85.9807 35.8461 85.9807Z" fill="black"/>
<path id="Vector_34" d="M19.2475 85.9807C17.8724 85.9807 16.7576 84.8659 16.7576 83.4908C16.7576 82.1157 17.8724 81.001 19.2475 81.001C20.6226 81.001 21.7373 82.1157 21.7373 83.4908C21.7373 84.8659 20.6226 85.9807 19.2475 85.9807Z" fill="black"/>
<path id="Vector_35" d="M2.64834 85.9807C1.27324 85.9807 0.158499 84.8659 0.158499 83.4908C0.158499 82.1157 1.27324 81.001 2.64834 81.001C4.02344 81.001 5.13818 82.1157 5.13818 83.4908C5.13818 84.8659 4.02344 85.9807 2.64834 85.9807Z" fill="black"/>
<path id="Vector_36" d="M85.6435 102.027C84.2684 102.027 83.1536 100.912 83.1536 99.5367C83.1536 98.1616 84.2684 97.0469 85.6435 97.0469C87.0186 97.0469 88.1333 98.1616 88.1333 99.5367C88.1333 100.912 87.0186 102.027 85.6435 102.027Z" fill="black"/>
<path id="Vector_37" d="M102.242 102.027C100.867 102.027 99.7522 100.912 99.7522 99.5367C99.7522 98.1616 100.867 97.0469 102.242 97.0469C103.617 97.0469 104.732 98.1616 104.732 99.5367C104.732 100.912 103.617 102.027 102.242 102.027Z" fill="black"/>
<path id="Vector_38" d="M52.4452 102.027C51.0701 102.027 49.9554 100.912 49.9554 99.5367C49.9554 98.1616 51.0701 97.0469 52.4452 97.0469C53.8203 97.0469 54.9351 98.1616 54.9351 99.5367C54.9351 100.912 53.8203 102.027 52.4452 102.027Z" fill="black"/>
<path id="Vector_39" d="M69.0443 102.027C67.6692 102.027 66.5545 100.912 66.5545 99.5367C66.5545 98.1616 67.6692 97.0469 69.0443 97.0469C70.4194 97.0469 71.5342 98.1616 71.5342 99.5367C71.5342 100.912 70.4194 102.027 69.0443 102.027Z" fill="black"/>
<path id="Vector_40" d="M35.8461 102.027C34.471 102.027 33.3563 100.912 33.3563 99.5367C33.3563 98.1616 34.471 97.0469 35.8461 97.0469C37.2212 97.0469 38.3359 98.1616 38.3359 99.5367C38.3359 100.912 37.2212 102.027 35.8461 102.027Z" fill="black"/>
<path id="Vector_41" d="M19.2475 102.027C17.8724 102.027 16.7576 100.912 16.7576 99.5367C16.7576 98.1616 17.8724 97.0469 19.2475 97.0469C20.6226 97.0469 21.7373 98.1616 21.7373 99.5367C21.7373 100.912 20.6226 102.027 19.2475 102.027Z" fill="black"/>
<path id="Vector_42" d="M2.64834 102.027C1.27324 102.027 0.158499 100.912 0.158499 99.5367C0.158499 98.1616 1.27324 97.0469 2.64834 97.0469C4.02344 97.0469 5.13818 98.1616 5.13818 99.5367C5.13818 100.912 4.02344 102.027 2.64834 102.027Z" fill="black"/>
<path id="Vector_43" d="M85.6435 5.75263C84.2684 5.75263 83.1536 4.63789 83.1536 3.26279C83.1536 1.88769 84.2684 0.772949 85.6435 0.772949C87.0186 0.772949 88.1333 1.88769 88.1333 3.26279C88.1333 4.63789 87.0186 5.75263 85.6435 5.75263Z" fill="black"/>
<path id="Vector_44" d="M102.242 5.75263C100.867 5.75263 99.7522 4.63789 99.7522 3.26279C99.7522 1.88769 100.867 0.772949 102.242 0.772949C103.617 0.772949 104.732 1.88769 104.732 3.26279C104.732 4.63789 103.617 5.75263 102.242 5.75263Z" fill="black"/>
<path id="Vector_45" d="M52.4452 5.75263C51.0701 5.75263 49.9554 4.63789 49.9554 3.26279C49.9554 1.88769 51.0701 0.772949 52.4452 0.772949C53.8203 0.772949 54.9351 1.88769 54.9351 3.26279C54.9351 4.63789 53.8203 5.75263 52.4452 5.75263Z" fill="black"/>
<path id="Vector_46" d="M69.0443 5.75263C67.6692 5.75263 66.5545 4.63789 66.5545 3.26279C66.5545 1.88769 67.6692 0.772949 69.0443 0.772949C70.4194 0.772949 71.5342 1.88769 71.5342 3.26279C71.5342 4.63789 70.4194 5.75263 69.0443 5.75263Z" fill="black"/>
<path id="Vector_47" d="M35.8461 5.75263C34.471 5.75263 33.3563 4.63789 33.3563 3.26279C33.3563 1.88769 34.471 0.772949 35.8461 0.772949C37.2212 0.772949 38.3359 1.88769 38.3359 3.26279C38.3359 4.63789 37.2212 5.75263 35.8461 5.75263Z" fill="black"/>
<path id="Vector_48" d="M19.2475 5.75263C17.8724 5.75263 16.7576 4.63789 16.7576 3.26279C16.7576 1.88769 17.8724 0.772949 19.2475 0.772949C20.6226 0.772949 21.7373 1.88769 21.7373 3.26279C21.7373 4.63789 20.6226 5.75263 19.2475 5.75263Z" fill="black"/>
<path id="Vector_49" d="M2.64834 5.75263C1.27324 5.75263 0.158499 4.63789 0.158499 3.26279C0.158499 1.88769 1.27324 0.772949 2.64834 0.772949C4.02344 0.772949 5.13818 1.88769 5.13818 3.26279C5.13818 4.63789 4.02344 5.75263 2.64834 5.75263Z" fill="black"/>
</g>
</g>
</svg>
